<?xml version="1.0" standalone="no"?>
<!DOCTYPE svg PUBLIC "-//W3C//DTD SVG 20010904//EN"
 "http://www.w3.org/TR/2001/REC-SVG-20010904/DTD/svg10.dtd">
<svg version="1.0" xmlns="http://www.w3.org/2000/svg"
 width="400.000000pt" height="400.000000pt" viewBox="0 0 400.000000 400.000000"
 preserveAspectRatio="xMidYMid meet">
<metadata>
Created by potrace 1.11, written by Peter Selinger 2001-2013
</metadata>
<g transform="translate(0.000000,400.000000) scale(0.100000,-0.100000)"
fill="#000000" stroke="none">
<path d="M1944 2781 c3 -5 0 -9 -7 -8 -40 1 -55 -6 -66 -30 -15 -32 -15 -38
-2 -38 5 0 13 -3 17 -7 3 -4 -3 -5 -15 -3 -26 5 -25 -23 2 -43 9 -7 17 -19 17
-25 0 -7 12 -14 28 -15 15 -1 29 -7 30 -12 2 -6 9 -7 15 -3 6 4 24 8 39 10 15
1 33 4 39 5 19 5 49 37 49 53 0 8 4 15 9 15 12 0 -3 46 -23 73 -8 10 -23 19
-35 20 -12 1 -21 4 -21 7 0 3 -18 6 -41 8 -23 1 -38 -1 -35 -7z m-14 -41 c0
-5 -5 -10 -11 -10 -5 0 -7 5 -4 10 3 6 8 10 11 10 2 0 4 -4 4 -10z m80 -45 c0
-2 -9 -3 -19 -2 -11 0 -18 5 -15 9 4 6 34 0 34 -7z m80 5 c0 -5 -2 -10 -4 -10
-3 0 -8 5 -11 10 -3 6 -1 10 4 10 6 0 11 -4 11 -10z m-144 -36 c1 -9 0 -13 -4
-10 -3 4 -7 14 -8 22 -1 9 0 13 4 10 3 -4 7 -14 8 -22z"/>
<path d="M1873 2597 c0 -9 5 -13 10 -10 6 3 7 1 4 -5 -4 -5 -15 -9 -25 -8 -9
2 -29 -1 -45 -5 -15 -4 -25 -4 -22 1 3 5 -15 7 -40 5 -26 -1 -45 2 -45 7 0 7
-5 6 -13 -1 -8 -6 -17 -8 -20 -4 -4 3 -7 -1 -7 -11 0 -9 -7 -19 -15 -22 -11
-5 -13 -10 -5 -19 5 -6 6 -16 2 -20 -4 -5 -1 -5 6 -1 7 4 12 1 12 -8 0 -9 7
-13 20 -11 13 2 20 -2 20 -11 0 -8 5 -14 10 -14 6 0 10 -7 10 -16 0 -10 5 -14
16 -10 8 3 13 2 9 -3 -3 -5 -2 -11 2 -13 13 -5 53 -88 53 -109 0 -10 4 -19 9
-19 5 0 8 -26 7 -57 l-1 -57 -42 0 c-43 -1 -65 -14 -69 -41 -3 -17 31 -39 46
-30 6 3 10 2 10 -4 0 -5 12 -8 28 -7 33 4 63 -10 57 -27 -2 -6 -7 -23 -9 -37
-3 -14 -12 -51 -20 -83 -9 -32 -14 -62 -11 -67 3 -5 0 -12 -6 -16 -8 -5 -9 -3
-4 6 5 9 4 11 -4 6 -6 -4 -9 -12 -5 -17 3 -5 0 -16 -6 -24 -7 -8 -9 -15 -4
-15 5 0 5 -4 -1 -8 -5 -4 -16 -18 -23 -31 -11 -19 -11 -22 0 -16 7 3 6 1 -3
-7 -23 -19 -41 -57 -33 -70 4 -7 3 -8 -4 -4 -7 4 -12 1 -12 -8 0 -9 -7 -16
-15 -16 -8 0 -15 -4 -15 -10 0 -5 8 -7 18 -4 9 2 7 -1 -5 -7 -13 -7 -23 -16
-23 -20 0 -5 -6 -6 -12 -4 -7 3 -20 0 -28 -5 -13 -9 -13 -12 3 -24 18 -14 23
-36 9 -36 -5 0 -15 -12 -23 -27 -8 -16 -18 -31 -22 -34 -4 -3 -9 -16 -10 -27
-1 -12 -4 -22 -7 -22 -16 0 -1 -44 16 -50 17 -7 18 -8 1 -11 -16 -4 -15 -8 8
-41 14 -21 24 -38 23 -39 -2 0 -11 -2 -21 -4 -10 -2 -27 -11 -36 -19 -10 -9
-21 -13 -26 -9 -4 5 -5 2 0 -6 6 -10 2 -12 -14 -6 -13 4 -21 2 -21 -5 0 -6
-12 -3 -27 7 -15 10 -24 12 -20 6 5 -7 4 -13 0 -13 -5 0 -13 -8 -20 -18 -9
-15 -8 -19 3 -19 7 0 11 4 9 8 -3 3 2 12 10 19 13 10 19 10 33 -4 10 -9 22
-13 25 -9 4 3 7 0 7 -7 0 -7 3 -10 6 -7 4 4 1 15 -7 24 -11 15 -11 16 1 5 12
-10 18 -7 35 15 16 19 22 22 22 10 0 -9 -4 -14 -9 -11 -4 3 -8 -2 -8 -10 0
-11 8 -14 30 -11 17 2 28 0 25 -5 -3 -5 -12 -7 -20 -3 -8 3 -15 -1 -15 -8 0
-7 3 -9 6 -6 4 3 15 2 25 -4 11 -5 19 -6 18 -2 -4 22 3 25 16 7 14 -18 15 -17
10 11 -5 25 -4 27 4 9 5 -12 15 -25 22 -30 7 -4 10 -3 6 2 -3 6 2 15 12 21 14
9 18 8 18 -3 0 -7 -5 -10 -11 -7 -6 3 -7 2 -3 -3 10 -11 107 -13 101 -2 -3 5
-10 5 -16 2 -7 -4 -8 -2 -4 4 5 9 13 9 29 0 29 -16 68 -18 60 -4 -4 6 1 5 10
-3 12 -9 17 -10 17 -2 0 7 5 9 13 4 16 -10 127 -10 127 0 0 5 5 5 12 1 15 -10
98 -12 92 -3 -2 4 3 10 12 13 8 3 12 2 9 -4 -3 -6 0 -10 7 -11 7 0 21 -2 31
-4 14 -3 17 1 13 18 -3 12 -3 16 0 9 3 -6 11 -9 16 -6 6 4 8 2 4 -4 -3 -6 -1
-14 5 -18 7 -4 9 -3 5 4 -3 6 -2 14 4 17 8 5 8 11 0 20 -8 10 -8 15 2 21 7 4
10 4 6 -1 -4 -4 -3 -14 3 -22 12 -14 34 -19 25 -5 -2 4 6 8 19 8 14 0 22 -2
20 -5 -3 -2 4 -11 15 -18 15 -10 25 -12 33 -4 7 5 25 12 41 15 21 4 26 2 22
-10 -8 -21 2 -17 15 7 9 17 8 20 -2 14 -9 -6 -11 -3 -6 11 6 16 5 17 -5 4 -7
-8 -24 -16 -38 -18 -23 -2 -23 -2 -6 11 15 11 16 14 3 14 -9 0 -18 -6 -21 -13
-7 -19 -36 -5 -36 17 0 12 -7 19 -20 19 -24 0 -27 28 -4 45 19 13 30 125 12
125 -5 0 -8 7 -4 15 3 8 0 15 -7 15 -7 0 -13 10 -14 22 -1 11 -6 24 -11 27
-15 10 -27 55 -12 46 8 -5 11 -1 8 11 -2 11 -10 19 -18 19 -20 0 -38 17 -33
32 2 6 -5 14 -18 18 -17 6 -19 9 -8 16 8 5 9 9 3 9 -7 0 -14 8 -18 18 -10 32
-47 87 -55 85 -5 -1 -7 7 -4 17 3 12 0 20 -6 20 -7 0 -10 4 -7 8 3 5 -1 21 -9
36 -8 14 -10 24 -5 21 6 -4 10 -1 10 4 0 6 -5 11 -12 11 -6 0 -8 3 -5 7 4 3 2
12 -4 20 -9 10 -8 13 2 13 9 0 10 3 3 8 -6 4 -11 19 -11 35 -1 15 -2 28 -3 30
-1 1 -3 13 -6 26 -5 28 14 54 34 46 8 -3 21 0 28 6 11 9 14 8 14 -1 0 -9 3
-10 13 -1 8 6 16 8 20 5 3 -3 4 5 1 18 -2 12 -2 17 2 11 7 -17 25 -17 22 -1
-6 26 -37 51 -57 45 -12 -3 -23 -1 -26 3 -3 4 -15 6 -27 2 -17 -4 -20 -2 -15
13 4 9 2 24 -5 32 -9 11 -8 13 2 11 19 -4 19 44 0 60 -13 11 -13 11 0 7 12 -4
22 8 37 43 12 26 28 54 37 61 9 8 16 20 16 28 0 8 3 12 8 10 9 -6 33 19 25 27
-4 3 3 6 14 6 28 0 35 10 20 29 -11 14 -10 14 6 2 20 -16 26 -12 31 16 7 33
-9 45 -60 48 -34 2 -52 -2 -63 -14 -9 -9 -13 -12 -9 -6 5 7 -5 11 -28 12 -26
1 -34 -3 -30 -13 3 -7 1 -16 -5 -19 -5 -4 -9 -3 -8 2 5 30 -2 45 -21 40 -11
-3 -18 -1 -14 4 6 11 -10 12 -20 2 -4 -5 -13 -8 -19 -8 -7 -1 -11 -6 -9 -13 1
-7 -2 -12 -8 -12 -5 0 -10 4 -10 8 0 4 -10 9 -22 10 -13 1 -32 3 -43 5 -11 1
-27 11 -36 21 -13 16 -16 17 -16 3z m-87 -73 c1 -9 0 -13 -4 -10 -3 4 -7 14
-8 22 -1 9 0 13 4 10 3 -4 7 -14 8 -22z m80 11 c-1 -8 -5 -17 -8 -21 -5 -4 -4
16 1 34 3 9 9 -1 7 -13z m404 5 c0 -5 -5 -10 -11 -10 -5 0 -7 5 -4 10 3 6 8
10 11 10 2 0 4 -4 4 -10z m-284 -42 c3 -4 -1 -5 -10 -4 -8 1 -18 5 -22 8 -3 4
1 5 10 4 8 -1 18 -5 22 -8z m204 2 c0 -5 -2 -10 -4 -10 -3 0 -8 5 -11 10 -3 6
-1 10 4 10 6 0 11 -4 11 -10z m-404 -25 c-1 -8 -5 -17 -8 -21 -5 -4 -4 16 1
34 3 9 9 -1 7 -13z m120 0 c-1 -8 -5 -17 -8 -21 -5 -4 -4 16 1 34 3 9 9 -1 7
-13z m44 -11 c0 -8 -19 -13 -24 -6 -3 5 1 9 9 9 8 0 15 -2 15 -3z m44 -2 c3
-5 -1 -9 -9 -9 -8 0 -12 4 -9 9 3 4 7 8 9 8 2 0 6 -4 9 -8z m111 -2 c3 -5 1
-10 -4 -10 -6 0 -11 5 -11 10 0 6 2 10 4 10 3 0 8 -4 11 -10z m55 4 c0 -8 -19
-13 -24 -6 -3 5 1 9 9 9 8 0 15 -2 15 -3z m-94 -40 c1 -9 0 -13 -4 -10 -3 4
-7 14 -8 22 -1 9 0 13 4 10 3 -4 7 -14 8 -22z m-181 -4 c3 -5 1 -10 -4 -10 -6
0 -11 5 -11 10 0 6 2 10 4 10 3 0 8 -4 11 -10z m91 -22 c3 -4 -1 -5 -10 -4 -8
1 -18 5 -22 8 -3 4 1 5 10 4 8 -1 18 -5 22 -8z m-110 -20 c3 -4 -1 -5 -10 -4
-8 1 -18 5 -22 8 -3 4 1 5 10 4 8 -1 18 -5 22 -8z m200 -3 c-1 -8 -5 -17 -8
-21 -5 -4 -4 16 1 34 3 9 9 -1 7 -13z m-160 -20 c-1 -8 -5 -17 -8 -21 -5 -4
-4 16 1 34 3 9 9 -1 7 -13z m44 -11 c0 -8 -19 -13 -24 -6 -3 5 1 9 9 9 8 0 15
-2 15 -3z m44 -2 c3 -5 -1 -9 -9 -9 -8 0 -12 4 -9 9 3 4 7 8 9 8 2 0 6 -4 9
-8z m-88 -58 c1 -9 0 -13 -4 -10 -3 4 -7 14 -8 22 -1 9 0 13 4 10 3 -4 7 -14
8 -22z m80 -26 c3 -4 -1 -5 -10 -4 -8 1 -18 5 -22 8 -3 4 1 5 10 4 8 -1 18 -5
22 -8z m79 3 c3 -5 2 -12 -3 -15 -5 -3 -9 1 -9 9 0 17 3 19 12 6z m-195 -41
c0 -5 -5 -10 -11 -10 -5 0 -7 5 -4 10 3 6 8 10 11 10 2 0 4 -4 4 -10z m135 1
c-9 -8 -36 -10 -30 -2 2 4 11 8 20 8 8 0 13 -3 10 -6z m-59 -37 c1 -9 0 -13
-4 -10 -3 4 -7 14 -8 22 -1 9 0 13 4 10 3 -4 7 -14 8 -22z m119 -3 c-9 -8 -36
-10 -30 -2 2 4 11 8 20 8 8 0 13 -3 10 -6z m-281 -39 c3 -5 -1 -9 -9 -9 -8 0
-12 4 -9 9 3 4 7 8 9 8 2 0 6 -4 9 -8z m141 -2 c3 -5 1 -10 -4 -10 -6 0 -11 5
-11 10 0 6 2 10 4 10 3 0 8 -4 11 -10z m140 1 c-9 -8 -36 -10 -30 -2 2 4 11 8
20 8 8 0 13 -3 10 -6z m60 0 c-9 -8 -36 -10 -30 -2 2 4 11 8 20 8 8 0 13 -3
10 -6z m-300 -21 c3 -5 1 -10 -4 -10 -6 0 -11 5 -11 10 0 6 2 10 4 10 3 0 8
-4 11 -10z m119 -18 c2 -4 -5 -9 -17 -9 -17 -2 -19 0 -7 7 18 12 18 12 24 2z
m62 -4 c3 -4 -1 -5 -10 -4 -8 1 -18 5 -22 8 -3 4 1 5 10 4 8 -1 18 -5 22 -8z
m-112 -16 c3 -5 -1 -9 -9 -9 -8 0 -12 4 -9 9 3 4 7 8 9 8 2 0 6 -4 9 -8z m131
-11 c3 -5 2 -12 -3 -15 -5 -3 -9 1 -9 9 0 17 3 19 12 6z m2 -48 c-4 -3 -1 -13
6 -22 11 -14 10 -14 -5 -2 -16 12 -16 31 -1 31 4 0 3 -3 0 -7z m-87 -19 c0 -8
-19 -13 -24 -6 -3 5 1 9 9 9 8 0 15 -2 15 -3z m141 -11 c13 -16 12 -17 -3 -4
-10 7 -18 15 -18 17 0 8 8 3 21 -13z m-95 -29 c1 -9 0 -13 -4 -10 -3 4 -7 14
-8 22 -1 9 0 13 4 10 3 -4 7 -14 8 -22z m-61 -4 c3 -5 1 -10 -4 -10 -6 0 -11
5 -11 10 0 6 2 10 4 10 3 0 8 -4 11 -10z m-40 -19 c-9 -8 -36 -10 -30 -2 2 4
11 8 20 8 8 0 13 -3 10 -6z m165 -1 c0 -5 -2 -10 -4 -10 -3 0 -8 5 -11 10 -3
6 -1 10 4 10 6 0 11 -4 11 -10z m-104 -36 c1 -9 0 -13 -4 -10 -3 4 -7 14 -8
22 -1 9 0 13 4 10 3 -4 7 -14 8 -22z m-82 -6 c-3 -4 -11 -5 -19 -1 -21 7 -19
12 4 10 11 0 18 -5 15 -9z m46 -78 c0 -5 -5 -10 -11 -10 -5 0 -7 5 -4 10 3 6
8 10 11 10 2 0 4 -4 4 -10z m116 -2 c4 -7 4 -10 -1 -6 -4 4 -15 2 -24 -5 -14
-11 -14 -10 -2 6 16 20 18 21 27 5z m54 6 c0 -8 -19 -13 -24 -6 -3 5 1 9 9 9
8 0 15 -2 15 -3z m-130 -24 c0 -5 -5 -10 -11 -10 -5 0 -7 5 -4 10 3 6 8 10 11
10 2 0 4 -4 4 -10z m156 -5 c-1 -8 -5 -17 -8 -21 -5 -4 -4 16 1 34 3 9 9 -1 7
-13z m-119 -60 c0 -8 -4 -12 -9 -9 -5 3 -6 10 -3 15 9 13 12 11 12 -6z m39
-11 c1 -9 0 -13 -4 -10 -3 4 -7 14 -8 22 -1 9 0 13 4 10 3 -4 7 -14 8 -22z
m-321 -143 c-9 -8 -36 -10 -30 -2 2 4 11 8 20 8 8 0 13 -3 10 -6z m50 -1 c-3
-5 -12 -10 -18 -10 -7 0 -6 4 3 10 19 12 23 12 15 0z m515 0 c0 -5 -5 -10 -11
-10 -5 0 -7 5 -4 10 3 6 8 10 11 10 2 0 4 -4 4 -10z m-40 -40 c0 -5 -2 -10 -4
-10 -3 0 -8 5 -11 10 -3 6 -1 10 4 10 6 0 11 -4 11 -10z m-4 -45 c-1 -8 -5
-17 -8 -21 -5 -4 -4 16 1 34 3 9 9 -1 7 -13z m-522 -37 c-3 -4 -11 -5 -19 -1
-21 7 -19 12 4 10 11 0 18 -5 15 -9z m323 -3 c0 -8 -4 -12 -9 -9 -5 3 -6 10
-3 15 9 13 12 11 12 -6z m120 0 c0 -8 -4 -12 -9 -9 -5 3 -6 10 -3 15 9 13 12
11 12 -6z m157 -21 c3 -8 2 -12 -4 -9 -6 3 -10 10 -10 16 0 14 7 11 14 -7z
m-619 -13 c-9 -8 -36 -10 -30 -2 2 4 11 8 20 8 8 0 13 -3 10 -6z m541 -3 c3
-4 -1 -5 -10 -4 -8 1 -18 5 -22 8 -3 4 1 5 10 4 8 -1 18 -5 22 -8z m-81 -18
c3 -5 1 -10 -4 -10 -6 0 -11 5 -11 10 0 6 2 10 4 10 3 0 8 -4 11 -10z m-400
-19 c-9 -8 -36 -10 -30 -2 2 4 11 8 20 8 8 0 13 -3 10 -6z m241 -3 c3 -4 -1
-5 -10 -4 -8 1 -18 5 -22 8 -3 4 1 5 10 4 8 -1 18 -5 22 -8z m60 0 c3 -4 -1
-5 -10 -4 -8 1 -18 5 -22 8 -3 4 1 5 10 4 8 -1 18 -5 22 -8z m244 8 c0 -3 -4
-8 -10 -11 -5 -3 -10 -1 -10 4 0 6 5 11 10 11 6 0 10 -2 10 -4z m-99 -23 c13
-16 12 -17 -3 -4 -10 7 -18 15 -18 17 0 8 8 3 21 -13z m-544 -10 c0 -9 -4 -10
-14 -2 -7 6 -13 12 -13 14 0 1 6 2 13 2 8 0 14 -6 14 -14z m38 7 c3 -5 1 -10
-4 -10 -6 0 -11 5 -11 10 0 6 2 10 4 10 3 0 8 -4 11 -10z m560 -8 c-3 -3 -11
0 -18 7 -9 10 -8 11 6 5 10 -3 15 -9 12 -12z m-418 -7 c0 -8 -4 -12 -9 -9 -5
3 -6 10 -3 15 9 13 12 11 12 -6z m78 -4 c3 -5 2 -12 -3 -15 -5 -3 -9 1 -9 9 0
17 3 19 12 6z m96 -8 c12 -16 12 -17 -2 -6 -9 7 -20 9 -24 5 -5 -4 -5 -1 -1 6
9 16 11 15 27 -5z m105 -9 c1 -9 0 -13 -4 -10 -3 4 -7 14 -8 22 -1 9 0 13 4
10 3 -4 7 -14 8 -22z m40 11 c-1 -8 -5 -17 -8 -21 -5 -4 -4 16 1 34 3 9 9 -1
7 -13z m-81 -15 c3 -5 1 -10 -4 -10 -6 0 -11 5 -11 10 0 6 2 10 4 10 3 0 8 -4
11 -10z m-379 -22 c3 -4 -1 -5 -10 -4 -8 1 -18 5 -22 8 -3 4 1 5 10 4 8 -1 18
-5 22 -8z m139 3 c3 -5 2 -12 -3 -15 -5 -3 -9 1 -9 9 0 17 3 19 12 6z m-175
-35 c0 -2 -7 -7 -16 -10 -8 -3 -12 -2 -9 4 6 10 25 14 25 6z m164 -4 c3 -5 -1
-9 -9 -9 -8 0 -12 4 -9 9 3 4 7 8 9 8 2 0 6 -4 9 -8z m316 -2 c0 -5 -2 -10 -4
-10 -3 0 -8 5 -11 10 -3 6 -1 10 4 10 6 0 11 -4 11 -10z m254 -32 c-3 -4 -9
-8 -15 -8 -5 0 -9 4 -9 8 0 5 7 9 15 9 8 0 12 -4 9 -9z m-274 -8 c0 -4 -7 -7
-15 -6 -23 3 -26 12 -5 13 11 1 20 -2 20 -7z m100 0 c0 -5 -2 -10 -4 -10 -3 0
-8 5 -11 10 -3 6 -1 10 4 10 6 0 11 -4 11 -10z"/>
<path d="M282 2127 c-91 -34 -114 -101 -114 -327 1 -227 24 -294 113 -325 117
-42 219 7 245 118 1 4 2 19 3 33 1 17 5 23 14 18 9 -6 9 -5 0 7 -7 9 -11 25
-8 37 4 20 0 22 -51 22 -55 0 -58 -2 -55 -47 1 -11 -2 -24 -7 -27 -6 -3 -8
-15 -5 -25 6 -24 -29 -61 -58 -61 -32 0 -59 19 -71 48 -12 31 -19 350 -7 358
5 2 5 12 2 20 -10 27 18 63 54 70 36 7 79 -9 81 -29 1 -7 3 -28 6 -47 3 -19 5
-41 5 -47 1 -9 18 -13 51 -13 53 0 54 1 50 55 -5 80 -38 137 -90 157 -40 16
-122 18 -158 5z"/>
<path d="M3619 2135 c-3 -2 -23 -6 -45 -7 l-39 -3 -1 -170 c-1 -116 2 -172 10
-177 8 -6 8 -8 -1 -8 -15 0 -14 -129 1 -149 8 -11 8 -13 -1 -8 -8 5 -11 -13
-10 -68 l1 -75 48 1 48 2 0 78 c0 55 5 86 17 107 17 29 18 30 34 11 9 -11 15
-29 12 -39 -3 -11 0 -20 6 -20 6 0 11 -13 11 -30 0 -16 5 -30 10 -30 6 0 9 -3
8 -7 -1 -5 1 -23 5 -40 6 -32 8 -33 57 -33 27 0 50 5 50 10 0 6 -5 10 -11 10
-5 0 -7 4 -4 10 3 5 1 18 -4 28 -5 10 -11 30 -13 45 -2 14 -8 30 -13 34 -4 5
-5 2 0 -6 5 -9 4 -12 -2 -8 -5 3 -9 16 -8 29 1 13 -2 28 -7 35 -5 7 -7 17 -3
23 3 5 1 10 -5 10 -6 0 -10 8 -8 18 2 9 -5 25 -16 35 -12 11 -16 21 -11 25 6
4 11 14 13 22 2 8 11 23 19 33 9 9 12 17 7 17 -5 0 -4 4 1 8 23 16 57 74 51
88 -3 8 -11 12 -17 8 -7 -4 -25 -7 -42 -8 -19 -1 -34 -8 -41 -21 -6 -11 -13
-22 -16 -25 -23 -23 -50 -73 -44 -82 4 -6 3 -8 -4 -4 -6 3 -14 1 -18 -5 -11
-18 -24 12 -14 32 5 9 6 19 3 23 -3 3 -5 69 -5 146 1 77 0 140 -1 140 -2 0 -6
-2 -8 -5z"/>
<path d="M1129 2118 c0 -7 -1 -56 -1 -110 l-1 -96 -28 20 c-53 40 -157 5 -159
-53 0 -9 -3 -19 -7 -23 -17 -16 -21 -242 -6 -271 6 -11 11 -24 11 -28 0 -27
29 -68 57 -81 41 -20 56 -20 100 -2 19 8 35 11 35 5 0 -5 24 -9 53 -9 l52 0
-1 323 c-1 177 -2 325 -3 330 -2 13 -101 8 -102 -5z m-8 -271 c4 -5 7 -72 6
-148 0 -137 0 -139 -23 -145 -34 -9 -59 0 -58 19 1 9 -2 14 -7 11 -10 -6 -11
-1 -14 121 -3 100 8 152 33 157 22 5 55 -3 63 -15z"/>
<path d="M2330 2093 c0 -18 4 -33 9 -33 5 0 7 -9 4 -21 -4 -12 0 -25 8 -30 11
-7 11 -9 1 -9 -9 0 -10 -5 -4 -17 5 -10 8 -26 7 -35 -2 -10 2 -18 8 -18 7 0 5
-5 -3 -10 -12 -8 -12 -10 5 -10 17 0 17 -2 5 -10 -8 -5 -10 -10 -3 -10 6 0 9
-9 5 -22 -4 -16 -2 -19 8 -13 10 6 11 4 4 -6 -13 -21 -14 -39 -2 -39 6 0 8 -9
5 -20 -3 -11 -2 -20 3 -20 4 0 6 -13 4 -30 -2 -16 1 -32 7 -35 7 -5 6 -11 -1
-20 -8 -10 -8 -15 1 -21 8 -5 9 -3 4 6 -5 8 -4 11 2 7 6 -4 9 -20 7 -37 -2
-19 1 -30 9 -30 8 0 7 -4 -3 -10 -8 -5 -10 -10 -4 -10 5 0 11 -19 13 -42 1
-24 6 -44 11 -46 5 -2 7 -9 4 -17 -4 -9 7 -14 36 -17 56 -5 66 9 72 103 1 22
6 39 11 39 5 0 3 8 -4 17 -8 10 -9 14 -2 10 7 -5 12 -1 12 10 1 38 16 158 20
158 1 0 4 26 6 58 3 57 15 94 15 48 0 -12 5 -31 10 -42 8 -14 7 -19 -1 -19 -8
0 -8 -4 1 -15 10 -12 10 -15 -1 -15 -12 0 -12 -2 0 -9 7 -5 11 -13 7 -19 -3
-6 -2 -13 3 -17 5 -3 8 -15 6 -27 -3 -12 0 -27 6 -35 9 -10 8 -13 -2 -13 -9 0
-10 -3 -4 -8 6 -4 12 -20 13 -36 1 -16 8 -36 15 -44 9 -13 9 -14 0 -8 -8 4
-13 2 -13 -8 0 -8 5 -18 11 -22 8 -4 7 -9 -2 -15 -8 -5 -9 -9 -4 -9 9 0 15
-21 18 -67 0 -8 15 -13 41 -13 44 0 72 12 63 27 -3 5 -2 15 3 23 5 8 4 22 -2
33 -7 14 -7 17 1 13 6 -4 11 -1 12 6 4 49 7 66 13 77 4 6 2 19 -6 28 -9 12 -9
15 0 9 8 -5 12 -1 12 12 0 10 3 22 7 26 4 3 8 23 9 44 1 20 3 37 4 37 6 0 14
57 14 101 1 35 5 50 13 47 7 -3 10 3 7 15 -3 10 1 35 9 54 11 26 12 39 4 47
-8 8 -7 11 4 11 12 0 12 2 -1 10 -8 5 -10 10 -4 10 22 0 10 26 -13 28 -17 1
-22 -2 -17 -11 6 -9 4 -9 -7 -1 -8 6 -22 11 -31 11 -17 0 -21 -14 -34 -112
-11 -86 -13 -95 -19 -105 -3 -5 0 -10 7 -10 10 0 10 -2 -1 -9 -8 -6 -12 -20
-9 -39 3 -19 0 -29 -5 -25 -6 4 -8 -3 -5 -15 4 -12 2 -24 -2 -27 -5 -3 -7 -17
-4 -30 3 -18 0 -25 -11 -25 -14 0 -20 12 -16 34 1 4 -4 15 -11 24 -10 12 -10
14 0 8 6 -4 12 -2 12 3 0 6 -5 11 -11 11 -8 0 -8 4 0 14 8 10 9 16 1 21 -5 3
-10 24 -10 46 0 24 -5 39 -12 39 -8 0 -9 3 -3 8 13 9 18 32 7 32 -4 0 -9 15
-11 33 -7 94 -9 101 -27 108 -18 6 -18 7 1 11 11 3 -4 6 -33 5 -59 0 -59 1
-66 -76 -3 -30 -8 -56 -11 -59 -3 -3 1 -12 8 -20 10 -13 9 -14 -2 -7 -11 6
-13 3 -9 -13 4 -12 2 -22 -4 -22 -6 0 -8 -8 -5 -19 2 -10 0 -26 -5 -35 -6 -11
-5 -16 4 -16 10 0 10 -2 1 -8 -6 -4 -14 -38 -16 -75 -5 -72 -9 -83 -27 -72 -8
5 -8 11 1 21 9 11 9 14 -1 14 -10 0 -10 3 -1 14 8 10 9 16 1 21 -5 3 -10 22
-10 41 0 19 -4 33 -9 29 -6 -3 -6 6 -1 24 4 16 4 33 0 37 -5 5 -10 33 -12 62
-2 33 -7 51 -14 48 -7 -3 -9 5 -6 20 2 13 1 40 -2 59 -7 34 -8 35 -51 33 -44
-1 -45 -2 -45 -35z m120 -357 c0 -2 -8 -10 -17 -17 -16 -13 -17 -12 -4 4 13
16 21 21 21 13z m280 -26 c0 -5 -4 -10 -10 -10 -5 0 -10 5 -10 10 0 6 5 10 10
10 6 0 10 -4 10 -10z m-6 -88 c3 -5 -1 -9 -9 -9 -8 0 -12 4 -9 9 3 4 7 8 9 8
2 0 6 -4 9 -8z"/>
<path d="M641 1938 c-33 -18 -59 -56 -67 -98 -7 -41 -7 -245 0 -278 15 -67 85
-110 165 -98 20 3 39 5 42 6 16 1 50 41 64 74 18 43 22 251 6 305 -6 19 -9 37
-6 39 2 2 -10 16 -27 30 -24 21 -44 27 -92 30 -37 2 -70 -2 -85 -10z m110 -96
c6 -34 5 -233 -1 -237 -5 -3 -6 -14 -3 -25 4 -14 -1 -21 -22 -26 -45 -11 -50
5 -50 152 0 121 2 137 19 149 18 14 54 6 57 -13z"/>
<path d="M1388 1939 c-10 -5 -18 -7 -18 -4 0 11 -46 -49 -54 -70 -13 -37 -20
-99 -17 -175 4 -123 6 -138 14 -133 6 4 11 -12 8 -29 0 -5 4 -8 10 -8 5 0 8
-4 5 -8 -7 -11 49 -43 86 -49 17 -2 46 -2 64 2 35 6 84 44 84 64 0 6 3 11 8
11 4 0 8 23 10 50 l3 50 -48 0 c-26 0 -55 -5 -63 -10 -9 -6 -10 -10 -3 -10 17
0 7 -40 -16 -63 -19 -19 -19 -19 -36 7 -10 15 -19 51 -21 82 l-3 54 52 1 c29
0 71 0 94 -1 36 -1 42 1 45 22 5 34 -16 150 -33 176 -28 44 -126 68 -171 41z
m83 -90 c2 -13 6 -29 9 -31 1 -2 4 -15 6 -30 3 -18 0 -28 -8 -29 -27 -2 -63 3
-71 11 -11 10 10 87 26 93 15 5 37 -2 38 -14z"/>
<path d="M3010 1942 c-23 -8 -40 -29 -32 -38 4 -5 -1 -2 -11 6 -10 7 -17 9
-16 4 1 -5 -1 -16 -4 -24 -14 -34 -23 -99 -21 -158 2 -45 -1 -60 -9 -55 -7 4
-6 -1 2 -10 7 -9 10 -17 7 -17 -4 0 -2 -9 4 -19 7 -13 7 -22 0 -26 -7 -4 -7
-12 0 -24 5 -10 6 -21 3 -25 -3 -3 -2 -6 4 -6 6 0 10 -8 9 -17 0 -10 5 -17 12
-15 8 1 11 -2 8 -7 -7 -10 19 -34 43 -38 45 -10 114 -7 118 4 3 6 12 9 20 6
11 -4 14 -2 9 5 -4 7 -1 12 7 12 8 0 18 10 22 23 11 32 12 37 15 40 9 11 8 62
-2 75 -9 11 -9 14 -1 9 9 -6 12 5 11 38 0 26 -5 45 -12 45 -8 0 -8 2 1 8 12 7
15 112 3 112 -4 0 -7 6 -7 13 0 7 -7 24 -17 39 -23 34 -119 58 -166 40z m88
-90 c2 -7 9 -9 15 -5 8 5 8 2 0 -9 -7 -8 -10 -17 -7 -20 2 -3 5 -42 5 -87 0
-44 4 -81 10 -81 5 0 9 -5 9 -11 0 -5 -4 -7 -10 -4 -6 4 -10 -8 -10 -29 0 -20
-5 -36 -11 -36 -5 0 -8 -4 -5 -9 3 -5 -7 -11 -24 -13 -24 -4 -31 0 -39 21 -6
14 -9 47 -7 74 1 26 -1 47 -6 47 -5 0 -6 5 -2 12 12 18 11 62 0 71 -7 5 -6 10
4 17 13 9 13 11 0 20 -11 7 -11 10 -2 10 7 0 11 4 7 9 -3 5 2 16 10 25 18 17
57 16 63 -2z"/>
<path d="M3411 1929 c-17 -10 -29 -24 -26 -29 3 -6 1 -10 -4 -10 -6 0 -11 11
-11 25 0 25 -2 26 -50 24 l-51 -3 2 -45 c2 -25 7 -49 13 -53 7 -5 7 -8 -1 -8
-7 0 -13 -11 -13 -25 0 -14 6 -25 13 -25 9 0 9 -2 0 -8 -14 -9 -15 -232 -1
-250 8 -9 7 -11 -7 -6 -15 6 -16 4 -7 -13 6 -11 9 -23 6 -25 -3 -3 2 -8 11
-11 8 -4 15 -2 15 4 0 6 5 7 10 4 6 -3 10 -1 10 5 0 6 7 4 16 -5 28 -27 34 0
34 140 -1 72 0 135 1 140 1 6 1 14 0 19 -4 19 11 66 19 61 5 -3 12 0 17 7 8
14 43 21 43 9 0 -4 8 -7 18 -8 16 -1 19 7 20 53 0 41 -3 54 -14 54 -10 0 -12
-5 -8 -12 6 -10 5 -10 -7 -1 -12 10 -22 8 -48 -8z"/>
<path d="M1495 1280 c-3 -5 -1 -10 4 -10 6 0 11 5 11 10 0 6 -2 10 -4 10 -3 0
-8 -4 -11 -10z"/>
<path d="M1307 1259 c7 -7 15 -10 18 -7 3 3 -2 9 -12 12 -14 6 -15 5 -6 -5z"/>
<path d="M1350 1260 c-12 -7 -10 -9 7 -7 12 0 19 5 17 9 -6 10 -6 10 -24 -2z"/>
<path d="M2496 1253 c-6 -14 -5 -15 5 -6 7 7 10 15 7 18 -3 3 -9 -2 -12 -12z"/>
<path d="M2552 1260 c2 -8 -2 -14 -8 -13 -6 1 -11 -5 -11 -12 0 -10 4 -12 12
-5 7 5 14 7 18 4 3 -3 4 1 3 10 -1 8 -6 19 -10 23 -4 4 -6 1 -4 -7z"/>
<path d="M1413 1234 c0 -17 2 -22 7 -13 5 6 6 18 3 26 -8 19 -10 16 -10 -13z"/>
<path d="M2307 1233 c-11 -10 -8 -25 3 -18 6 4 19 1 28 -6 13 -11 12 -8 -2 9
-22 25 -20 24 -29 15z"/>
<path d="M1470 1219 c0 -5 4 -8 9 -4 5 3 12 1 16 -5 3 -5 11 -10 18 -10 6 0 2
7 -9 15 -23 17 -34 19 -34 4z"/>
<path d="M1550 1220 c0 -6 4 -9 9 -6 5 4 12 1 14 -4 3 -6 4 -5 3 2 -3 15 -26
23 -26 8z"/>
<path d="M2270 1221 c0 -5 5 -13 10 -16 6 -3 10 -2 10 4 0 5 -4 13 -10 16 -5
3 -10 2 -10 -4z"/>
<path d="M2470 1222 c0 -4 10 -9 22 -9 18 -2 20 0 8 7 -18 12 -30 13 -30 2z"/>
<path d="M2405 1210 c-16 -7 -17 -9 -3 -9 9 -1 20 4 23 9 7 11 7 11 -20 0z"/>
</g>
</svg>
